<?xml version="1.0" encoding="utf-8"?>
<svg xmlns="http://www.w3.org/2000/svg" xmlns:xlink="http://www.w3.org/1999/xlink" style="margin: auto; background: none; display: block; shape-rendering: auto;" width="137px" height="137px" viewBox="0 0 100 100" preserveAspectRatio="xMidYMid">
<g transform="rotate(0 50 50)">
  <rect x="45.5" y="29" rx="1.8900000000000001" ry="1.8900000000000001" width="9" height="4" fill="#ff5151">
    <animate attributeName="opacity" values="1;0" keyTimes="0;1" dur="0.5988023952095808s" begin="-0.5443658138268916s" repeatCount="indefinite"></animate>
  </rect>
</g><g transform="rotate(32.72727272727273 50 50)">
  <rect x="45.5" y="29" rx="1.8900000000000001" ry="1.8900000000000001" width="9" height="4" fill="#ff5151">
    <animate attributeName="opacity" values="1;0" keyTimes="0;1" dur="0.5988023952095808s" begin="-0.4899292324442025s" repeatCount="indefinite"></animate>
  </rect>
</g><g transform="rotate(65.45454545454545 50 50)">
  <rect x="45.5" y="29" rx="1.8900000000000001" ry="1.8900000000000001" width="9" height="4" fill="#ff5151">
    <animate attributeName="opacity" values="1;0" keyTimes="0;1" dur="0.5988023952095808s" begin="-0.4354926510615133s" repeatCount="indefinite"></animate>
  </rect>
</g><g transform="rotate(98.18181818181819 50 50)">
  <rect x="45.5" y="29" rx="1.8900000000000001" ry="1.8900000000000001" width="9" height="4" fill="#ff5151">
    <animate attributeName="opacity" values="1;0" keyTimes="0;1" dur="0.5988023952095808s" begin="-0.38105606967882416s" repeatCount="indefinite"></animate>
  </rect>
</g><g transform="rotate(130.9090909090909 50 50)">
  <rect x="45.5" y="29" rx="1.8900000000000001" ry="1.8900000000000001" width="9" height="4" fill="#ff5151">
    <animate attributeName="opacity" values="1;0" keyTimes="0;1" dur="0.5988023952095808s" begin="-0.32661948829613496s" repeatCount="indefinite"></animate>
  </rect>
</g><g transform="rotate(163.63636363636363 50 50)">
  <rect x="45.5" y="29" rx="1.8900000000000001" ry="1.8900000000000001" width="9" height="4" fill="#ff5151">
    <animate attributeName="opacity" values="1;0" keyTimes="0;1" dur="0.5988023952095808s" begin="-0.2721829069134458s" repeatCount="indefinite"></animate>
  </rect>
</g><g transform="rotate(196.36363636363637 50 50)">
  <rect x="45.5" y="29" rx="1.8900000000000001" ry="1.8900000000000001" width="9" height="4" fill="#ff5151">
    <animate attributeName="opacity" values="1;0" keyTimes="0;1" dur="0.5988023952095808s" begin="-0.21774632553075665s" repeatCount="indefinite"></animate>
  </rect>
</g><g transform="rotate(229.0909090909091 50 50)">
  <rect x="45.5" y="29" rx="1.8900000000000001" ry="1.8900000000000001" width="9" height="4" fill="#ff5151">
    <animate attributeName="opacity" values="1;0" keyTimes="0;1" dur="0.5988023952095808s" begin="-0.16330974414806748s" repeatCount="indefinite"></animate>
  </rect>
</g><g transform="rotate(261.8181818181818 50 50)">
  <rect x="45.5" y="29" rx="1.8900000000000001" ry="1.8900000000000001" width="9" height="4" fill="#ff5151">
    <animate attributeName="opacity" values="1;0" keyTimes="0;1" dur="0.5988023952095808s" begin="-0.10887316276537833s" repeatCount="indefinite"></animate>
  </rect>
</g><g transform="rotate(294.54545454545456 50 50)">
  <rect x="45.5" y="29" rx="1.8900000000000001" ry="1.8900000000000001" width="9" height="4" fill="#ff5151">
    <animate attributeName="opacity" values="1;0" keyTimes="0;1" dur="0.5988023952095808s" begin="-0.05443658138268916s" repeatCount="indefinite"></animate>
  </rect>
</g><g transform="rotate(327.27272727272725 50 50)">
  <rect x="45.5" y="29" rx="1.8900000000000001" ry="1.8900000000000001" width="9" height="4" fill="#ff5151">
    <animate attributeName="opacity" values="1;0" keyTimes="0;1" dur="0.5988023952095808s" begin="0s" repeatCount="indefinite"></animate>
  </rect>
</g>
<!-- [ldio] generated by https://loading.io/ --></svg>